<?xml version="1.0" encoding="utf-8"?>
<!-- Generator: Adobe Illustrator 19.2.1, SVG Export Plug-In . SVG Version: 6.00 Build 0)  -->
<!DOCTYPE svg PUBLIC "-//W3C//DTD SVG 1.1//EN" "http://www.w3.org/Graphics/SVG/1.1/DTD/svg11.dtd">
<svg version="1.1" id="instagram" xmlns="http://www.w3.org/2000/svg" xmlns:xlink="http://www.w3.org/1999/xlink" x="0px" y="0px"
	 viewBox="0 0 46.5 46.5" style="enable-background:new 0 0 46.5 46.5;" xml:space="preserve">
<style type="text/css">
	.st0{fill:#13BDA3;}
</style>
<path class="st0" d="M23.3,7.1c-8.9,0-16.2,7.2-16.2,16.2s7.2,16.2,16.2,16.2s16.2-7.2,16.2-16.2S32.2,7.1,23.3,7.1z M32.9,32.9
	c-1.2,1.2-2.7,2.2-4.3,2.9c-0.4,0.2-0.8,0.3-1.3,0.5v-2.4c0-1.3-0.4-2.2-1.3-2.8c0.5-0.1,1.1-0.1,1.5-0.2c0.5-0.1,0.9-0.2,1.5-0.4
	c0.5-0.2,1-0.4,1.4-0.6c0.4-0.2,0.8-0.6,1.2-1s0.7-0.8,0.9-1.3c0.3-0.5,0.5-1.1,0.6-1.8c0.1-0.7,0.2-1.5,0.2-2.3
	c0-1.6-0.5-3-1.6-4.2c0.5-1.3,0.4-2.6-0.2-4.1l-0.4,0c-0.3,0-0.8,0.1-1.5,0.3s-1.5,0.7-2.4,1.3c-1.3-0.3-2.6-0.5-3.9-0.5
	c-1.4,0-2.7,0.2-3.9,0.5c-0.6-0.4-1.1-0.7-1.6-0.9c-0.5-0.2-0.9-0.4-1.2-0.5c-0.3-0.1-0.6-0.1-0.8-0.2c-0.3,0-0.4,0-0.5,0
	c-0.1,0-0.1,0-0.2,0c-0.6,1.5-0.6,2.9-0.2,4.1c-1.1,1.1-1.6,2.5-1.6,4.2c0,0.8,0.1,1.6,0.2,2.3c0.1,0.7,0.3,1.3,0.6,1.8
	c0.3,0.5,0.6,0.9,0.9,1.3c0.4,0.4,0.8,0.7,1.2,1c0.4,0.2,0.9,0.5,1.4,0.6c0.5,0.2,1,0.3,1.5,0.4c0.5,0.1,1,0.2,1.5,0.2
	c-0.9,0.6-1.3,1.5-1.3,2.8v2.5c-0.5-0.1-0.9-0.3-1.4-0.5c-1.6-0.7-3.1-1.7-4.3-2.9c-1.2-1.2-2.2-2.7-2.9-4.3
	c-0.7-1.7-1.1-3.5-1.1-5.3s0.4-3.6,1.1-5.3c0.7-1.6,1.7-3.1,2.9-4.3s2.7-2.2,4.3-2.9c1.7-0.7,3.5-1.1,5.3-1.1s3.6,0.4,5.3,1.1
	c1.6,0.7,3.1,1.7,4.3,2.9c1.2,1.2,2.2,2.7,2.9,4.3c0.7,1.7,1.1,3.5,1.1,5.3s-0.4,3.6-1.1,5.3C35.1,30.2,34.1,31.6,32.9,32.9
	L32.9,32.9z"/>
</svg>
