<?xml version="1.0" encoding="utf-8"?>
<!-- Generator: Adobe Illustrator 19.2.1, SVG Export Plug-In . SVG Version: 6.00 Build 0)  -->
<!DOCTYPE svg PUBLIC "-//W3C//DTD SVG 1.1//EN" "http://www.w3.org/Graphics/SVG/1.1/DTD/svg11.dtd">
<svg version="1.1" id="instagram" xmlns="http://www.w3.org/2000/svg" xmlns:xlink="http://www.w3.org/1999/xlink" x="0px" y="0px"
	 viewBox="0 0 46.5 46.5" style="enable-background:new 0 0 46.5 46.5;" xml:space="preserve">
<style type="text/css">
	.st0{fill:#13BDA3;}
</style>
<path class="st0" d="M35.9,7.1H10.7c-2,0-3.6,1.6-3.6,3.6v25.2c0,2,1.6,3.6,3.6,3.6h25.2c2,0,3.6-1.6,3.6-3.6V10.7
	C39.4,8.7,37.8,7.1,35.9,7.1z M23.2,17.1c3.4,0,6.2,2.8,6.2,6.2c0,3.4-2.8,6.2-6.2,6.2s-6.2-2.8-6.2-6.2S19.8,17.1,23.2,17.1z
	 M35.6,34.4c0,0.7-0.6,1.3-1.3,1.3H12.2c-0.7,0-1.3-0.6-1.3-1.3V20.8h2.8c-0.2,0.8-0.3,1.6-0.3,2.4c0,5.5,4.4,9.9,9.9,9.9
	s9.9-4.4,9.9-9.9c0-0.8-0.1-1.6-0.3-2.4h2.7V34.4L35.6,34.4z M35.7,15.7c0,0.7-0.6,1.3-1.3,1.3h-3.7c-0.7,0-1.3-0.6-1.3-1.3V12
	c0-0.7,0.6-1.3,1.3-1.3h3.7c0.7,0,1.3,0.6,1.3,1.3V15.7z"/>
</svg>
