<?xml version="1.0" encoding="utf-8"?>
<!-- Generator: Adobe Illustrator 19.2.1, SVG Export Plug-In . SVG Version: 6.00 Build 0)  -->
<!DOCTYPE svg PUBLIC "-//W3C//DTD SVG 1.1//EN" "http://www.w3.org/Graphics/SVG/1.1/DTD/svg11.dtd">
<svg version="1.1" id="instagram" xmlns="http://www.w3.org/2000/svg" xmlns:xlink="http://www.w3.org/1999/xlink" x="0px" y="0px"
	 viewBox="0 0 46.5 46.5" style="enable-background:new 0 0 46.5 46.5;" xml:space="preserve">
<style type="text/css">
	.st0{fill:#13BDA3;}
</style>
<path class="st0" d="M34,7.7H12.5c-3,0-5.4,2.4-5.4,5.4v21.5c0,3,2.4,5.4,5.4,5.4H34c3,0,5.4-2.4,5.4-5.4V13.2
	C39.4,10.2,37,7.7,34,7.7z M19.2,34h-4V19.8h4V34z M17.2,17.8c-1.1,0-2-0.9-2-2s0.9-2,2-2c1.1,0,2,0.9,2,2S18.3,17.8,17.2,17.8z
	 M33.4,34h-4v-8.1c0-1.1-0.9-2-2-2c-1.1,0-2,0.9-2,2V34h-4V19.8h4v2.5c0.8-1.1,2.1-2.5,3.5-2.5c2.5,0,4.5,2.3,4.5,5.1L33.4,34
	L33.4,34z"/>
</svg>
