<?xml version="1.0" encoding="utf-8"?>
<!-- Generator: Adobe Illustrator 19.2.1, SVG Export Plug-In . SVG Version: 6.00 Build 0)  -->
<!DOCTYPE svg PUBLIC "-//W3C//DTD SVG 1.1//EN" "http://www.w3.org/Graphics/SVG/1.1/DTD/svg11.dtd">
<svg version="1.1" id="instagram" xmlns="http://www.w3.org/2000/svg" xmlns:xlink="http://www.w3.org/1999/xlink" x="0px" y="0px"
	 viewBox="0 0 46.5 46.5" style="enable-background:new 0 0 46.5 46.5;" xml:space="preserve">
<style type="text/css">
	.st0{fill:#13BDA3;}
</style>
<path class="st0" d="M39.4,13.2c-1.2,0.5-2.5,0.9-3.8,1.1c1.4-0.8,2.4-2.1,2.9-3.7c-1.3,0.8-2.7,1.3-4.2,1.6
	c-1.2-1.3-2.9-2.1-4.8-2.1c-3.7,0-6.6,3-6.6,6.7c0,0.5,0.1,1,0.2,1.5c-5.5-0.3-10.4-2.9-13.7-7c-0.6,1-0.9,2.1-0.9,3.4
	c0,2.3,1.2,4.4,3,5.6c-1.1,0-2.1-0.3-3-0.8c0,0,0,0.1,0,0.1c0,3.2,2.3,5.9,5.3,6.5c-0.6,0.2-1.1,0.2-1.7,0.2c-0.4,0-0.8,0-1.2-0.1
	c0.8,2.7,3.3,4.6,6.2,4.6c-2.3,1.8-5.1,2.9-8.2,2.9c-0.5,0-1.1,0-1.6-0.1c2.9,1.9,6.4,3,10.2,3c12.2,0,18.9-10.2,18.9-19
	c0-0.3,0-0.6,0-0.9C37.4,15.7,38.5,14.5,39.4,13.2z"/>
</svg>
