<?xml version="1.0" encoding="utf-8"?>
<!-- Generator: Adobe Illustrator 19.2.1, SVG Export Plug-In . SVG Version: 6.00 Build 0)  -->
<!DOCTYPE svg PUBLIC "-//W3C//DTD SVG 1.1//EN" "http://www.w3.org/Graphics/SVG/1.1/DTD/svg11.dtd">
<svg version="1.1" xmlns="http://www.w3.org/2000/svg" xmlns:xlink="http://www.w3.org/1999/xlink" x="0px" y="0px"
	 viewBox="0 0 835.1 686.1" style="enable-background:new 0 0 835.1 686.1;" xml:space="preserve">
<style type="text/css">
	.st0{fill:none;}
	.st1{opacity:0.84;enable-background:new    ;}
	.st2{font-family:'LFTEtica-Bold';}
	.st3{font-size:23px;}
	.st4{font-family:'Roboto-Regular';}
	.st5{font-size:16px;}
	.st6{font-family:'Roboto-Bold';}
	.st7{font-size:20px;}
	.st8{fill:#00BCD4;}
	.st9{fill:#FFFFFF;}
	.st10{font-size:25px;}
	.st11{fill:#4CAF50;}
	.st12{fill:#FF5252;}
</style>
<g id="Layer_2_1_">
</g>
<g id="Layer_3">
	<rect x="33.1" y="36" class="st0" width="558.9" height="61.9"/>
	<text transform="matrix(1 0 0 1 33.0785 52.5919)" class="st1 st2 st3">BEFORE WE SET OUT TO SAVE THE WORLD</text>
	<text transform="matrix(1 0 0 1 33.0785 82.5919)" class="st1 st2 st3">WE DECIDED TO TALK TO SOME PEOPLE.</text>
	<rect x="33.1" y="105" class="st0" width="424.7" height="39.4"/>
	<text transform="matrix(1 0 0 1 33.0788 116.9554)" class="st1 st4 st5">We interviewed several homeowners and found that many </text>
	<text transform="matrix(1 0 0 1 33.0788 137.9554)" class="st1 st4 st5">held onto their old electronics for these three reasons:</text>
	<rect x="33.1" y="409.4" class="st0" width="424.7" height="39.4"/>
	<text transform="matrix(1 0 0 1 33.0788 421.3616)" class="st1 st4 st5">During our research we noticed a reoccurring topic arise </text>
	<text transform="matrix(1 0 0 1 33.0788 442.3616)" class="st1 st4 st5">throughout the discussions. </text>
	<text transform="matrix(1 0 0 1 234.9788 442.3616)" class="st1 st6 st5">Kids and technology, </text>
	<rect x="196.6" y="298.4" class="st0" width="424.7" height="39.4"/>
	<text transform="matrix(1 0 0 1 205.3462 310.4093)" class="st6 st5">Meanwhile these gadgets are collecting dust underneath </text>
	<text transform="matrix(1 0 0 1 234.9462 329.6093)" class="st6 st5">beds, storage closets and buried inside garages. </text>
	<rect x="165.7" y="183.7" class="st0" width="116.5" height="68.7"/>
	<text transform="matrix(1 0 0 1 165.7067 198.0904)" class="st2 st7">Eventually </text>
	<text transform="matrix(1 0 0 1 165.7067 222.0904)" class="st2 st7">pass down </text>
	<text transform="matrix(1 0 0 1 165.7067 246.0904)" class="st2 st7">to children.</text>
	<rect x="621.3" y="184.8" class="st0" width="88.1" height="67"/>
	<text transform="matrix(1 0 0 1 621.2978 199.1998)" class="st2 st7">Security </text>
	<text transform="matrix(1 0 0 1 621.2978 223.1998)" class="st2 st7">and data </text>
	<text transform="matrix(1 0 0 1 621.2978 247.1998)" class="st2 st7">concerns</text>
	<rect x="388" y="183.7" class="st0" width="125.7" height="65.3"/>
	<text transform="matrix(1 0 0 1 387.9653 198.0901)" class="st2 st7">Devices have </text>
	<text transform="matrix(1 0 0 1 387.9653 222.0901)" class="st2 st7">minor fixable </text>
	<text transform="matrix(1 0 0 1 387.9653 246.0901)" class="st2 st7">damages.</text>
	<g>
		
			<image style="overflow:visible;opacity:0.39;enable-background:new    ;" width="57" height="57" xlink:href="D92384BAB9507E59.png"  transform="matrix(1 0 0 1 101.2423 170.7827)">
		</image>
		<g>
			<circle class="st8" cx="130.8" cy="199.2" r="19.1"/>
		</g>
	</g>
	<rect x="118.2" y="188.2" class="st0" width="25.1" height="27.7"/>
	<text transform="matrix(1 0 0 1 124.1532 206.1602)" class="st9 st2 st10">1</text>
	<g>
		
			<image style="overflow:visible;opacity:0.39;enable-background:new    ;" width="57" height="57" xlink:href="D92384BAB9507E5B.png"  transform="matrix(1 0 0 1 322.2423 170.7827)">
		</image>
		<g>
			<circle class="st11" cx="351.6" cy="199.2" r="19.1"/>
		</g>
	</g>
	<rect x="339" y="188.9" class="st0" width="25.1" height="28.2"/>
	<text transform="matrix(1 0 0 1 344.7438 206.9182)" class="st9 st2 st10">2</text>
	<g>
		
			<image style="overflow:visible;opacity:0.39;enable-background:new    ;" width="57" height="57" xlink:href="D92384BAB9507E5E.png"  transform="matrix(1 0 0 1 558.2423 170.7827)">
		</image>
		<g>
			<circle class="st12" cx="587.4" cy="199.2" r="19.1"/>
		</g>
	</g>
	<rect x="574.8" y="189" class="st0" width="25.1" height="20.4"/>
	<text transform="matrix(1 0 0 1 580.4096 206.9805)" class="st9 st2 st10">3</text>
	<rect x="33.1" y="374.5" class="st0" width="201.2" height="23.9"/>
	<text transform="matrix(1 0 0 1 33.079 391.0204)" class="st1 st2 st3">DIGGING DEEPER:</text>
	<g>
		
			<image style="overflow:visible;opacity:0.46;enable-background:new    ;" width="269" height="169" xlink:href="D92384BAB9507E5F.png"  transform="matrix(1 0 0 1 136.924 488.3755)">
		</image>
		<g>
			<g>
				<path class="st12" d="M384.8,641.6H164.4c-6.6,0-12-5.4-12-12V510.1c0-6.6,5.4-12,12-12h220.4c6.6,0,12,5.4,12,12v119.5
					C396.8,636.2,391.4,641.6,384.8,641.6z"/>
				<rect x="178.4" y="523.7" class="st0" width="200.4" height="96.4"/>
				<text transform="matrix(1 0 0 1 178.3931 538.0594)" class="st9 st2 st7">Most public schools </text>
				<text transform="matrix(1 0 0 1 178.3931 564.0594)" class="st9 st2 st7">require students to </text>
				<text transform="matrix(1 0 0 1 178.3931 590.0594)" class="st9 st2 st7">have access to a </text>
				<text transform="matrix(1 0 0 1 178.3931 616.0594)" class="st9 st2 st7">personal laptop.</text>
			</g>
		</g>
	</g>
	<g>
		
			<image style="overflow:visible;opacity:0.46;enable-background:new    ;" width="350" height="169" xlink:href="D92384BAB9507E5A.png"  transform="matrix(1 0 0 1 414.7761 488.3755)">
		</image>
		<g>
			<g>
				<path class="st8" d="M742.9,641.6H442.5c-6.6,0-12-5.4-12-12V510.1c0-6.6,5.4-12,12-12h300.4c6.6,0,12,5.4,12,12v119.5
					C754.9,636.2,749.5,641.6,742.9,641.6z"/>
				<rect x="453.5" y="523.7" class="st0" width="290.2" height="96.4"/>
				<text transform="matrix(1 0 0 1 453.5739 538.0594)" class="st9 st2 st7">Public schools are trying to </text>
				<text transform="matrix(1 0 0 1 453.5739 564.0594)" class="st9 st2 st7">implement more technology- </text>
				<text transform="matrix(1 0 0 1 453.5739 590.0594)" class="st9 st2 st7">based curriculums but lack </text>
				<text transform="matrix(1 0 0 1 453.5739 616.0594)" class="st9 st2 st7">both the resources and funds.</text>
			</g>
		</g>
	</g>
	<g>
		<defs>
			<rect id="SVGID_1_" x="12.5" y="538.3" width="393.9" height="90.7"/>
		</defs>
		<clipPath id="SVGID_2_">
			<use xlink:href="#SVGID_1_"  style="overflow:visible;"/>
		</clipPath>
	</g>
	<g>
		<defs>
			<rect id="SVGID_3_" x="17.6" y="640.8" width="393.9" height="90.7"/>
		</defs>
		<clipPath id="SVGID_4_">
			<use xlink:href="#SVGID_3_"  style="overflow:visible;"/>
		</clipPath>
	</g>
</g>
<g id="Layer_4">
</g>
</svg>
